  0
SECTION
  2
HEADER
  9
$ACADVER
  1
AC1014
  9
$HANDSEED
  5
FFFF
  9
$MEASUREMENT
 70
     1
  0
ENDSEC
  0
SECTION
  2
TABLES
  0
TABLE
  2
VPORT
  5
8
330
0
100
AcDbSymbolTable
 70
     4
  0
VPORT
  5
2E
330
8
100
AcDbSymbolTableRecord
100
AcDbViewportTableRecord
  2
*ACTIVE
 70
     0
 10
0.0
 20
0.0
 11
1.0
 21
1.0
 12
210.0
 22
148.5
 13
0.0
 23
0.0
 14
10.0
 24
10.0
 15
10.0
 25
10.0
 16
0.0
 26
0.0
 36
1.0
 17
0.0
 27
0.0
 37
0.0
 40
341.0
 41
1.24
 42
50.0
 43
0.0
 44
0.0
 50
0.0
 51
0.0
 71
     0
 72
   100
 73
     1
 74
     3
 75
     0
 76
     0
 77
     0
 78
     0
  0
ENDTAB
  0
TABLE
  2
LTYPE
  5
5
330
0
100
AcDbSymbolTable
 70
     1
  0
LTYPE
  5
14
330
5
100
AcDbSymbolTableRecord
100
AcDbLinetypeTableRecord
  2
BYBLOCK
 70
     0
  3

 72
    65
 73
     0
 40
0.0
  0
LTYPE
  5
15
330
5
100
AcDbSymbolTableRecord
100
AcDbLinetypeTableRecord
  2
BYLAYER
 70
     0
  3

 72
    65
 73
     0
 40
0.0
  0
LTYPE
  5
16
330
5
100
AcDbSymbolTableRecord
100
AcDbLinetypeTableRecord
  2
CONTINUOUS
 70
     0
  3
Solid line
 72
    65
 73
     0
 40
0.0
  0
ENDTAB
  0
TABLE
  2
LAYER
  5
2
100
AcDbSymbolTable
 70
2
  0
LAYER
  5
50
100
AcDbSymbolTableRecord
100
AcDbLayerTableRecord
  2
0
 70
0
  6
CONTINUOUS
  0
LAYER
  5
51
100
AcDbSymbolTableRecord
100
AcDbLayerTableRecord
  2
Layer_1
 70
0
  6
CONTINUOUS
  0
ENDTAB
  0
TABLE
  2
STYLE
  5
3
330
0
100
AcDbSymbolTable
 70
     1
  0
STYLE
  5
11
330
3
100
AcDbSymbolTableRecord
100
AcDbTextStyleTableRecord
  2
STANDARD
 70
     0
 40
0.0
 41
1.0
 50
0.0
 71
     0
 42
2.5
  3
txt
  4

  0
ENDTAB
  0
TABLE
  2
VIEW
  5
6
330
0
100
AcDbSymbolTable
 70
     0
  0
ENDTAB
  0
TABLE
  2
UCS
  5
7
330
0
100
AcDbSymbolTable
 70
     0
  0
ENDTAB
  0
TABLE
  2
APPID
  5
9
330
0
100
AcDbSymbolTable
 70
     2
  0
APPID
  5
12
330
9
100
AcDbSymbolTableRecord
100
AcDbRegAppTableRecord
  2
ACAD
 70
     0
  0
ENDTAB
  0
TABLE
  2
DIMSTYLE
  5
A
330
0
100
AcDbSymbolTable
 70
     1
  0
DIMSTYLE
105
27
330
A
100
AcDbSymbolTableRecord
100
AcDbDimStyleTableRecord
  2
ISO-25
 70
     0
  3

  4

  5

  6

  7

 40
1.0
 41
2.5
 42
0.625
 43
3.75
 44
1.25
 45
0.0
 46
0.0
 47
0.0
 48
0.0
140
2.5
141
2.5
142
0.0
143
0.03937007874016
144
1.0
145
0.0
146
1.0
147
0.625
 71
     0
 72
     0
 73
     0
 74
     0
 75
     0
 76
     0
 77
     1
 78
     8
170
     0
171
     3
172
     1
173
     0
174
     0
175
     0
176
     0
177
     0
178
     0
270
     2
271
     2
272
     2
273
     2
274
     3
340
11
275
     0
280
     0
281
     0
282
     0
283
     0
284
     8
285
     0
286
     0
287
     3
288
     0
  0
ENDTAB
  0
TABLE
  2
BLOCK_RECORD
  5
1
330
0
100
AcDbSymbolTable
 70
     1
  0
BLOCK_RECORD
  5
1F
330
1
100
AcDbSymbolTableRecord
100
AcDbBlockTableRecord
  2
*MODEL_SPACE
  0
BLOCK_RECORD
  5
1B
330
1
100
AcDbSymbolTableRecord
100
AcDbBlockTableRecord
  2
*PAPER_SPACE
  0
ENDTAB
  0
ENDSEC
  0
SECTION
  2
BLOCKS
  0
BLOCK
  5
20
330
1F
100
AcDbEntity
  8
0
100
AcDbBlockBegin
  2
*MODEL_SPACE
 70
     0
 10
0.0
 20
0.0
 30
0.0
  3
*MODEL_SPACE
  1

  0
ENDBLK
  5
21
330
1F
100
AcDbEntity
  8
0
100
AcDbBlockEnd
  0
BLOCK
  5
1C
330
1B
100
AcDbEntity
 67
     1
  8
0
100
AcDbBlockBegin
  2
*PAPER_SPACE
  1

  0
ENDBLK
  5
1D
330
1B
100
AcDbEntity
 67
     1
  8
0
100
AcDbBlockEnd
  0
ENDSEC
  0
SECTION
  2
ENTITIES
  0
LINE
  5
100
100
AcDbEntity
  8
Layer_1
 62
7
100
AcDbLine
 10
72.341845
 20
240.994588
 30
0.0
 11
70.119610
 21
240.771809
 31
0.0
  0
LINE
  5
101
100
AcDbEntity
  8
Layer_1
 62
7
100
AcDbLine
 10
70.119610
 20
240.771809
 30
0.0
 11
68.052155
 21
240.132840
 31
0.0
  0
LINE
  5
102
100
AcDbEntity
  8
Layer_1
 62
7
100
AcDbLine
 10
68.052155
 20
240.132840
 30
0.0
 11
66.183403
 21
239.121074
 31
0.0
  0
LINE
  5
103
100
AcDbEntity
  8
Layer_1
 62
7
100
AcDbLine
 10
66.183403
 20
239.121074
 30
0.0
 11
64.556745
 21
237.779901
 31
0.0
  0
LINE
  5
104
100
AcDbEntity
  8
Layer_1
 62
7
100
AcDbLine
 10
64.556745
 20
237.779901
 30
0.0
 11
63.215572
 21
236.153242
 31
0.0
  0
LINE
  5
105
100
AcDbEntity
  8
Layer_1
 62
7
100
AcDbLine
 10
63.215572
 20
236.153242
 30
0.0
 11
62.203805
 21
234.284490
 31
0.0
  0
LINE
  5
106
100
AcDbEntity
  8
Layer_1
 62
7
100
AcDbLine
 10
62.203805
 20
234.284490
 30
0.0
 11
61.564572
 21
232.217036
 31
0.0
  0
LINE
  5
107
100
AcDbEntity
  8
Layer_1
 62
7
100
AcDbLine
 10
61.564572
 20
232.217036
 30
0.0
 11
61.342058
 21
229.994801
 31
0.0
  0
LINE
  5
108
100
AcDbEntity
  8
Layer_1
 62
7
100
AcDbLine
 10
61.342058
 20
229.994801
 30
0.0
 11
61.342058
 21
126.064617
 31
0.0
  0
LINE
  5
109
100
AcDbEntity
  8
Layer_1
 62
7
100
AcDbLine
 10
61.342058
 20
126.064617
 30
0.0
 11
61.564572
 21
123.842381
 31
0.0
  0
LINE
  5
10a
100
AcDbEntity
  8
Layer_1
 62
7
100
AcDbLine
 10
61.564572
 20
123.842381
 30
0.0
 11
62.203805
 21
121.775192
 31
0.0
  0
LINE
  5
10b
100
AcDbEntity
  8
Layer_1
 62
7
100
AcDbLine
 10
62.203805
 20
121.775192
 30
0.0
 11
63.215572
 21
119.906175
 31
0.0
  0
LINE
  5
10c
100
AcDbEntity
  8
Layer_1
 62
7
100
AcDbLine
 10
63.215572
 20
119.906175
 30
0.0
 11
64.556745
 21
118.279517
 31
0.0
  0
LINE
  5
10d
100
AcDbEntity
  8
Layer_1
 62
7
100
AcDbLine
 10
64.556745
 20
118.279517
 30
0.0
 11
66.183403
 21
116.938344
 31
0.0
  0
LINE
  5
10e
100
AcDbEntity
  8
Layer_1
 62
7
100
AcDbLine
 10
66.183403
 20
116.938344
 30
0.0
 11
68.052155
 21
115.926577
 31
0.0
  0
LINE
  5
10f
100
AcDbEntity
  8
Layer_1
 62
7
100
AcDbLine
 10
68.052155
 20
115.926577
 30
0.0
 11
70.119610
 21
115.287609
 31
0.0
  0
LINE
  5
110
100
AcDbEntity
  8
Layer_1
 62
7
100
AcDbLine
 10
70.119610
 20
115.287609
 30
0.0
 11
72.341845
 21
115.064829
 31
0.0
  0
LINE
  5
111
100
AcDbEntity
  8
Layer_1
 62
7
100
AcDbLine
 10
72.341845
 20
115.064829
 30
0.0
 11
132.260709
 21
115.064829
 31
0.0
  0
LINE
  5
112
100
AcDbEntity
  8
Layer_1
 62
7
100
AcDbLine
 10
132.260709
 20
115.064829
 30
0.0
 11
134.482944
 21
115.287609
 31
0.0
  0
LINE
  5
113
100
AcDbEntity
  8
Layer_1
 62
7
100
AcDbLine
 10
134.482944
 20
115.287609
 30
0.0
 11
136.550398
 21
115.926577
 31
0.0
  0
LINE
  5
114
100
AcDbEntity
  8
Layer_1
 62
7
100
AcDbLine
 10
136.550398
 20
115.926577
 30
0.0
 11
138.419150
 21
116.938344
 31
0.0
  0
LINE
  5
115
100
AcDbEntity
  8
Layer_1
 62
7
100
AcDbLine
 10
138.419150
 20
116.938344
 30
0.0
 11
140.046073
 21
118.279517
 31
0.0
  0
LINE
  5
116
100
AcDbEntity
  8
Layer_1
 62
7
100
AcDbLine
 10
140.046073
 20
118.279517
 30
0.0
 11
141.387246
 21
119.906175
 31
0.0
  0
LINE
  5
117
100
AcDbEntity
  8
Layer_1
 62
7
100
AcDbLine
 10
141.387246
 20
119.906175
 30
0.0
 11
142.399277
 21
121.775192
 31
0.0
  0
LINE
  5
118
100
AcDbEntity
  8
Layer_1
 62
7
100
AcDbLine
 10
142.399277
 20
121.775192
 30
0.0
 11
143.038246
 21
123.842381
 31
0.0
  0
LINE
  5
119
100
AcDbEntity
  8
Layer_1
 62
7
100
AcDbLine
 10
143.038246
 20
123.842381
 30
0.0
 11
143.261025
 21
126.064617
 31
0.0
  0
LINE
  5
11a
100
AcDbEntity
  8
Layer_1
 62
7
100
AcDbLine
 10
143.261025
 20
126.064617
 30
0.0
 11
143.261025
 21
229.994801
 31
0.0
  0
LINE
  5
11b
100
AcDbEntity
  8
Layer_1
 62
7
100
AcDbLine
 10
143.261025
 20
229.994801
 30
0.0
 11
143.038246
 21
232.217036
 31
0.0
  0
LINE
  5
11c
100
AcDbEntity
  8
Layer_1
 62
7
100
AcDbLine
 10
143.038246
 20
232.217036
 30
0.0
 11
142.399277
 21
234.284490
 31
0.0
  0
LINE
  5
11d
100
AcDbEntity
  8
Layer_1
 62
7
100
AcDbLine
 10
142.399277
 20
234.284490
 30
0.0
 11
141.387246
 21
236.153242
 31
0.0
  0
LINE
  5
11e
100
AcDbEntity
  8
Layer_1
 62
7
100
AcDbLine
 10
141.387246
 20
236.153242
 30
0.0
 11
140.046073
 21
237.779901
 31
0.0
  0
LINE
  5
11f
100
AcDbEntity
  8
Layer_1
 62
7
100
AcDbLine
 10
140.046073
 20
237.779901
 30
0.0
 11
138.419150
 21
239.121074
 31
0.0
  0
LINE
  5
120
100
AcDbEntity
  8
Layer_1
 62
7
100
AcDbLine
 10
138.419150
 20
239.121074
 30
0.0
 11
136.550398
 21
240.132840
 31
0.0
  0
LINE
  5
121
100
AcDbEntity
  8
Layer_1
 62
7
100
AcDbLine
 10
136.550398
 20
240.132840
 30
0.0
 11
134.482944
 21
240.771809
 31
0.0
  0
LINE
  5
122
100
AcDbEntity
  8
Layer_1
 62
7
100
AcDbLine
 10
134.482944
 20
240.771809
 30
0.0
 11
132.260709
 21
240.994588
 31
0.0
  0
LINE
  5
123
100
AcDbEntity
  8
Layer_1
 62
7
100
AcDbLine
 10
132.260709
 20
240.994588
 30
0.0
 11
72.341845
 21
240.994588
 31
0.0
  0
LINE
  5
124
100
AcDbEntity
  8
Layer_1
 62
7
100
AcDbLine
 10
72.341845
 20
240.994588
 30
0.0
 11
72.341845
 21
240.994588
 31
0.0
  0
LINE
  5
125
100
AcDbEntity
  8
Layer_1
 62
7
100
AcDbLine
 10
102.301674
 20
201.759791
 30
0.0
 11
107.084017
 21
201.277720
 31
0.0
  0
LINE
  5
126
100
AcDbEntity
  8
Layer_1
 62
7
100
AcDbLine
 10
107.084017
 20
201.277720
 30
0.0
 11
111.538278
 21
199.895007
 31
0.0
  0
LINE
  5
127
100
AcDbEntity
  8
Layer_1
 62
7
100
AcDbLine
 10
111.538278
 20
199.895007
 30
0.0
 11
115.569205
 21
197.706903
 31
0.0
  0
LINE
  5
128
100
AcDbEntity
  8
Layer_1
 62
7
100
AcDbLine
 10
115.569205
 20
197.706903
 30
0.0
 11
119.081019
 21
194.809451
 31
0.0
  0
LINE
  5
129
100
AcDbEntity
  8
Layer_1
 62
7
100
AcDbLine
 10
119.081019
 20
194.809451
 30
0.0
 11
121.978471
 21
191.297372
 31
0.0
  0
LINE
  5
12a
100
AcDbEntity
  8
Layer_1
 62
7
100
AcDbLine
 10
121.978471
 20
191.297372
 30
0.0
 11
124.166311
 21
187.266710
 31
0.0
  0
LINE
  5
12b
100
AcDbEntity
  8
Layer_1
 62
7
100
AcDbLine
 10
124.166311
 20
187.266710
 30
0.0
 11
125.549023
 21
182.812449
 31
0.0
  0
LINE
  5
12c
100
AcDbEntity
  8
Layer_1
 62
7
100
AcDbLine
 10
125.549023
 20
182.812449
 30
0.0
 11
126.031094
 21
178.030106
 31
0.0
  0
LINE
  5
12d
100
AcDbEntity
  8
Layer_1
 62
7
100
AcDbLine
 10
126.031094
 20
178.030106
 30
0.0
 11
125.549023
 21
173.247762
 31
0.0
  0
LINE
  5
12e
100
AcDbEntity
  8
Layer_1
 62
7
100
AcDbLine
 10
125.549023
 20
173.247762
 30
0.0
 11
124.166311
 21
168.793502
 31
0.0
  0
LINE
  5
12f
100
AcDbEntity
  8
Layer_1
 62
7
100
AcDbLine
 10
124.166311
 20
168.793502
 30
0.0
 11
121.978471
 21
164.762575
 31
0.0
  0
LINE
  5
130
100
AcDbEntity
  8
Layer_1
 62
7
100
AcDbLine
 10
121.978471
 20
164.762575
 30
0.0
 11
119.081019
 21
161.250495
 31
0.0
  0
LINE
  5
131
100
AcDbEntity
  8
Layer_1
 62
7
100
AcDbLine
 10
119.081019
 20
161.250495
 30
0.0
 11
115.569205
 21
158.353043
 31
0.0
  0
LINE
  5
132
100
AcDbEntity
  8
Layer_1
 62
7
100
AcDbLine
 10
115.569205
 20
158.353043
 30
0.0
 11
111.538278
 21
156.165204
 31
0.0
  0
LINE
  5
133
100
AcDbEntity
  8
Layer_1
 62
7
100
AcDbLine
 10
111.538278
 20
156.165204
 30
0.0
 11
107.084017
 21
154.782227
 31
0.0
  0
LINE
  5
134
100
AcDbEntity
  8
Layer_1
 62
7
100
AcDbLine
 10
107.084017
 20
154.782227
 30
0.0
 11
102.301674
 21
154.300156
 31
0.0
  0
LINE
  5
135
100
AcDbEntity
  8
Layer_1
 62
7
100
AcDbLine
 10
102.301674
 20
154.300156
 30
0.0
 11
97.650563
 21
154.760266
 31
0.0
  0
LINE
  5
136
100
AcDbEntity
  8
Layer_1
 62
7
100
AcDbLine
 10
97.650563
 20
154.760266
 30
0.0
 11
93.220645
 21
156.106466
 31
0.0
  0
LINE
  5
137
100
AcDbEntity
  8
Layer_1
 62
7
100
AcDbLine
 10
93.220645
 20
156.106466
 30
0.0
 11
89.136536
 21
158.286898
 31
0.0
  0
LINE
  5
138
100
AcDbEntity
  8
Layer_1
 62
7
100
AcDbLine
 10
89.136536
 20
158.286898
 30
0.0
 11
85.522328
 21
161.250495
 31
0.0
  0
LINE
  5
139
100
AcDbEntity
  8
Layer_1
 62
7
100
AcDbLine
 10
85.522328
 20
161.250495
 30
0.0
 11
82.558730
 21
164.864704
 31
0.0
  0
LINE
  5
13a
100
AcDbEntity
  8
Layer_1
 62
7
100
AcDbLine
 10
82.558730
 20
164.864704
 30
0.0
 11
80.378299
 21
168.949077
 31
0.0
  0
LINE
  5
13b
100
AcDbEntity
  8
Layer_1
 62
7
100
AcDbLine
 10
80.378299
 20
168.949077
 30
0.0
 11
79.032099
 21
173.378995
 31
0.0
  0
LINE
  5
13c
100
AcDbEntity
  8
Layer_1
 62
7
100
AcDbLine
 10
79.032099
 20
173.378995
 30
0.0
 11
78.571989
 21
178.030106
 31
0.0
  0
LINE
  5
13d
100
AcDbEntity
  8
Layer_1
 62
7
100
AcDbLine
 10
78.571989
 20
178.030106
 30
0.0
 11
79.032099
 21
182.681216
 31
0.0
  0
LINE
  5
13e
100
AcDbEntity
  8
Layer_1
 62
7
100
AcDbLine
 10
79.032099
 20
182.681216
 30
0.0
 11
80.378299
 21
187.111135
 31
0.0
  0
LINE
  5
13f
100
AcDbEntity
  8
Layer_1
 62
7
100
AcDbLine
 10
80.378299
 20
187.111135
 30
0.0
 11
82.558730
 21
191.195243
 31
0.0
  0
LINE
  5
140
100
AcDbEntity
  8
Layer_1
 62
7
100
AcDbLine
 10
82.558730
 20
191.195243
 30
0.0
 11
85.522328
 21
194.809451
 31
0.0
  0
LINE
  5
141
100
AcDbEntity
  8
Layer_1
 62
7
100
AcDbLine
 10
85.522328
 20
194.809451
 30
0.0
 11
89.136536
 21
197.773049
 31
0.0
  0
LINE
  5
142
100
AcDbEntity
  8
Layer_1
 62
7
100
AcDbLine
 10
89.136536
 20
197.773049
 30
0.0
 11
93.220645
 21
199.953480
 31
0.0
  0
LINE
  5
143
100
AcDbEntity
  8
Layer_1
 62
7
100
AcDbLine
 10
93.220645
 20
199.953480
 30
0.0
 11
97.650563
 21
201.299680
 31
0.0
  0
LINE
  5
144
100
AcDbEntity
  8
Layer_1
 62
7
100
AcDbLine
 10
97.650563
 20
201.299680
 30
0.0
 11
102.301674
 21
201.759791
 31
0.0
  0
LINE
  5
145
100
AcDbEntity
  8
Layer_1
 62
7
100
AcDbLine
 10
102.301674
 20
201.759791
 30
0.0
 11
102.301674
 21
201.759791
 31
0.0
  0
LINE
  5
146
100
AcDbEntity
  8
Layer_1
 62
7
100
AcDbLine
 10
102.238703
 20
198.503564
 30
0.0
 11
98.122315
 21
198.076791
 31
0.0
  0
LINE
  5
147
100
AcDbEntity
  8
Layer_1
 62
7
100
AcDbLine
 10
98.122315
 20
198.076791
 30
0.0
 11
94.289561
 21
196.876641
 31
0.0
  0
LINE
  5
148
100
AcDbEntity
  8
Layer_1
 62
7
100
AcDbLine
 10
94.289561
 20
196.876641
 30
0.0
 11
90.822461
 21
194.985399
 31
0.0
  0
LINE
  5
149
100
AcDbEntity
  8
Layer_1
 62
7
100
AcDbLine
 10
90.822461
 20
194.985399
 30
0.0
 11
87.802243
 21
192.484822
 31
0.0
  0
LINE
  5
14a
100
AcDbEntity
  8
Layer_1
 62
7
100
AcDbLine
 10
87.802243
 20
192.484822
 30
0.0
 11
85.311191
 21
189.457195
 31
0.0
  0
LINE
  5
14b
100
AcDbEntity
  8
Layer_1
 62
7
100
AcDbLine
 10
85.311191
 20
189.457195
 30
0.0
 11
83.430532
 21
185.984010
 31
0.0
  0
LINE
  5
14c
100
AcDbEntity
  8
Layer_1
 62
7
100
AcDbLine
 10
83.430532
 20
185.984010
 30
0.0
 11
82.242289
 21
182.147816
 31
0.0
  0
LINE
  5
14d
100
AcDbEntity
  8
Layer_1
 62
7
100
AcDbLine
 10
82.242289
 20
182.147816
 30
0.0
 11
81.827951
 21
178.030106
 31
0.0
  0
LINE
  5
14e
100
AcDbEntity
  8
Layer_1
 62
7
100
AcDbLine
 10
81.827951
 20
178.030106
 30
0.0
 11
82.225091
 21
174.017170
 31
0.0
  0
LINE
  5
14f
100
AcDbEntity
  8
Layer_1
 62
7
100
AcDbLine
 10
82.225091
 20
174.017170
 30
0.0
 11
83.386611
 21
170.195000
 31
0.0
  0
LINE
  5
150
100
AcDbEntity
  8
Layer_1
 62
7
100
AcDbLine
 10
83.386611
 20
170.195000
 30
0.0
 11
85.267799
 21
166.671279
 31
0.0
  0
LINE
  5
151
100
AcDbEntity
  8
Layer_1
 62
7
100
AcDbLine
 10
85.267799
 20
166.671279
 30
0.0
 11
87.824732
 21
163.552900
 31
0.0
  0
LINE
  5
152
100
AcDbEntity
  8
Layer_1
 62
7
100
AcDbLine
 10
87.824732
 20
163.552900
 30
0.0
 11
90.942847
 21
160.996231
 31
0.0
  0
LINE
  5
153
100
AcDbEntity
  8
Layer_1
 62
7
100
AcDbLine
 10
90.942847
 20
160.996231
 30
0.0
 11
94.466832
 21
159.114779
 31
0.0
  0
LINE
  5
154
100
AcDbEntity
  8
Layer_1
 62
7
100
AcDbLine
 10
94.466832
 20
159.114779
 30
0.0
 11
98.289003
 21
157.953258
 31
0.0
  0
LINE
  5
155
100
AcDbEntity
  8
Layer_1
 62
7
100
AcDbLine
 10
98.289003
 20
157.953258
 30
0.0
 11
102.301674
 21
157.556383
 31
0.0
  0
LINE
  5
156
100
AcDbEntity
  8
Layer_1
 62
7
100
AcDbLine
 10
102.301674
 20
157.556383
 30
0.0
 11
106.314609
 21
157.953258
 31
0.0
  0
LINE
  5
157
100
AcDbEntity
  8
Layer_1
 62
7
100
AcDbLine
 10
106.314609
 20
157.953258
 30
0.0
 11
110.136780
 21
159.114779
 31
0.0
  0
LINE
  5
158
100
AcDbEntity
  8
Layer_1
 62
7
100
AcDbLine
 10
110.136780
 20
159.114779
 30
0.0
 11
113.660501
 21
160.996231
 31
0.0
  0
LINE
  5
159
100
AcDbEntity
  8
Layer_1
 62
7
100
AcDbLine
 10
113.660501
 20
160.996231
 30
0.0
 11
116.778880
 21
163.552900
 31
0.0
  0
LINE
  5
15a
100
AcDbEntity
  8
Layer_1
 62
7
100
AcDbLine
 10
116.778880
 20
163.552900
 30
0.0
 11
119.335548
 21
166.671279
 31
0.0
  0
LINE
  5
15b
100
AcDbEntity
  8
Layer_1
 62
7
100
AcDbLine
 10
119.335548
 20
166.671279
 30
0.0
 11
121.217001
 21
170.195000
 31
0.0
  0
LINE
  5
15c
100
AcDbEntity
  8
Layer_1
 62
7
100
AcDbLine
 10
121.217001
 20
170.195000
 30
0.0
 11
122.378521
 21
174.017170
 31
0.0
  0
LINE
  5
15d
100
AcDbEntity
  8
Layer_1
 62
7
100
AcDbLine
 10
122.378521
 20
174.017170
 30
0.0
 11
122.775396
 21
178.030106
 31
0.0
  0
LINE
  5
15e
100
AcDbEntity
  8
Layer_1
 62
7
100
AcDbLine
 10
122.775396
 20
178.030106
 30
0.0
 11
122.378521
 21
182.042776
 31
0.0
  0
LINE
  5
15f
100
AcDbEntity
  8
Layer_1
 62
7
100
AcDbLine
 10
122.378521
 20
182.042776
 30
0.0
 11
121.217001
 21
185.864947
 31
0.0
  0
LINE
  5
160
100
AcDbEntity
  8
Layer_1
 62
7
100
AcDbLine
 10
121.217001
 20
185.864947
 30
0.0
 11
119.335548
 21
189.388933
 31
0.0
  0
LINE
  5
161
100
AcDbEntity
  8
Layer_1
 62
7
100
AcDbLine
 10
119.335548
 20
189.388933
 30
0.0
 11
116.778880
 21
192.507047
 31
0.0
  0
LINE
  5
162
100
AcDbEntity
  8
Layer_1
 62
7
100
AcDbLine
 10
116.778880
 20
192.507047
 30
0.0
 11
113.660501
 21
195.063980
 31
0.0
  0
LINE
  5
163
100
AcDbEntity
  8
Layer_1
 62
7
100
AcDbLine
 10
113.660501
 20
195.063980
 30
0.0
 11
110.136780
 21
196.945168
 31
0.0
  0
LINE
  5
164
100
AcDbEntity
  8
Layer_1
 62
7
100
AcDbLine
 10
110.136780
 20
196.945168
 30
0.0
 11
106.314609
 21
198.106689
 31
0.0
  0
LINE
  5
165
100
AcDbEntity
  8
Layer_1
 62
7
100
AcDbLine
 10
106.314609
 20
198.106689
 30
0.0
 11
102.301674
 21
198.503564
 31
0.0
  0
LINE
  5
166
100
AcDbEntity
  8
Layer_1
 62
7
100
AcDbLine
 10
102.301674
 20
198.503564
 30
0.0
 11
102.238703
 21
198.503564
 31
0.0
  0
LINE
  5
167
100
AcDbEntity
  8
Layer_1
 62
7
100
AcDbLine
 10
102.238703
 20
198.503564
 30
0.0
 11
102.238703
 21
198.503564
 31
0.0
  0
LINE
  5
168
100
AcDbEntity
  8
Layer_1
 62
7
100
AcDbLine
 10
102.270717
 20
182.448383
 30
0.0
 11
102.301145
 21
182.448383
 31
0.0
  0
LINE
  5
169
100
AcDbEntity
  8
Layer_1
 62
7
100
AcDbLine
 10
102.301145
 20
182.448383
 30
0.0
 11
104.021201
 21
182.101249
 31
0.0
  0
LINE
  5
16a
100
AcDbEntity
  8
Layer_1
 62
7
100
AcDbLine
 10
104.021201
 20
182.101249
 30
0.0
 11
105.425609
 21
181.154306
 31
0.0
  0
LINE
  5
16b
100
AcDbEntity
  8
Layer_1
 62
7
100
AcDbLine
 10
105.425609
 20
181.154306
 30
0.0
 11
106.372817
 21
179.749897
 31
0.0
  0
LINE
  5
16c
100
AcDbEntity
  8
Layer_1
 62
7
100
AcDbLine
 10
106.372817
 20
179.749897
 30
0.0
 11
106.720215
 21
178.030106
 31
0.0
  0
LINE
  5
16d
100
AcDbEntity
  8
Layer_1
 62
7
100
AcDbLine
 10
106.720215
 20
178.030106
 30
0.0
 11
106.383665
 21
176.338889
 31
0.0
  0
LINE
  5
16e
100
AcDbEntity
  8
Layer_1
 62
7
100
AcDbLine
 10
106.383665
 20
176.338889
 30
0.0
 11
105.425874
 21
174.905377
 31
0.0
  0
LINE
  5
16f
100
AcDbEntity
  8
Layer_1
 62
7
100
AcDbLine
 10
105.425874
 20
174.905377
 30
0.0
 11
103.992361
 21
173.947585
 31
0.0
  0
LINE
  5
170
100
AcDbEntity
  8
Layer_1
 62
7
100
AcDbLine
 10
103.992361
 20
173.947585
 30
0.0
 11
102.301145
 21
173.611035
 31
0.0
  0
LINE
  5
171
100
AcDbEntity
  8
Layer_1
 62
7
100
AcDbLine
 10
102.301145
 20
173.611035
 30
0.0
 11
100.581353
 21
173.958433
 31
0.0
  0
LINE
  5
172
100
AcDbEntity
  8
Layer_1
 62
7
100
AcDbLine
 10
100.581353
 20
173.958433
 30
0.0
 11
99.176945
 21
174.905641
 31
0.0
  0
LINE
  5
173
100
AcDbEntity
  8
Layer_1
 62
7
100
AcDbLine
 10
99.176945
 20
174.905641
 30
0.0
 11
98.230001
 21
176.310049
 31
0.0
  0
LINE
  5
174
100
AcDbEntity
  8
Layer_1
 62
7
100
AcDbLine
 10
98.230001
 20
176.310049
 30
0.0
 11
97.882868
 21
178.030106
 31
0.0
  0
LINE
  5
175
100
AcDbEntity
  8
Layer_1
 62
7
100
AcDbLine
 10
97.882868
 20
178.030106
 30
0.0
 11
98.227090
 21
179.742489
 31
0.0
  0
LINE
  5
176
100
AcDbEntity
  8
Layer_1
 62
7
100
AcDbLine
 10
98.227090
 20
179.742489
 30
0.0
 11
99.166361
 21
181.143458
 31
0.0
  0
LINE
  5
177
100
AcDbEntity
  8
Layer_1
 62
7
100
AcDbLine
 10
99.166361
 20
181.143458
 30
0.0
 11
100.560715
 21
182.092254
 31
0.0
  0
LINE
  5
178
100
AcDbEntity
  8
Layer_1
 62
7
100
AcDbLine
 10
100.560715
 20
182.092254
 30
0.0
 11
102.270717
 21
182.448383
 31
0.0
  0
LINE
  5
179
100
AcDbEntity
  8
Layer_1
 62
7
100
AcDbLine
 10
102.270717
 20
182.448383
 30
0.0
 11
102.270717
 21
182.448383
 31
0.0
  0
ENDSEC
  0
SECTION
  2
OBJECTS
  0
DICTIONARY
  5
C
330
0
100
AcDbDictionary
  3
ACAD_GROUP
350
D
  3
ACAD_MLINESTYLE
350
17
  0
DICTIONARY
  5
D
330
C
100
AcDbDictionary
  0
DICTIONARY
  5
1A
330
C
100
AcDbDictionary
  0
DICTIONARY
  5
17
330
C
100
AcDbDictionary
  3
STANDARD
350
18
  0
DICTIONARY
  5
19
330
C
100
AcDbDictionary
  0
ENDSEC
  0
EOF
